<svg width="187" height="38" viewBox="0 0 187 38" fill="none" xmlns="http://www.w3.org/2000/svg">
<rect y="12.75" width="17.6777" height="17.6777" transform="rotate(-15 0 12.75)" fill="#6E68FE"/>
<path d="M28.1985 27.0664L32.4465 7.67188H34.9807L36.3577 9.32715L31.8313 29H29.0334L28.1985 27.0664ZM27.0706 7.67188L30.6594 27.2129L29.7366 29H26.4993L21.9729 7.67188H27.0706ZM38.6868 27.1104L42.2463 7.67188H47.3293L42.803 29H39.5803L38.6868 27.1104ZM36.8118 7.67188L41.1624 27.1836L40.2834 29H37.4856L32.8567 9.29785L34.2922 7.67188H36.8118ZM65.6786 25.0449V29H54.3114V25.0449H65.6786ZM56.1424 7.67188V29H51.0008V7.67188H56.1424ZM64.2137 16.1387V19.9619H54.3114V16.1387H64.2137ZM65.7225 7.67188V11.6416H54.3114V7.67188H65.7225ZM78.1391 19.9326H72.6459L72.6166 16.5635H77.0698C77.8706 16.5635 78.5102 16.4756 78.9887 16.2998C79.4672 16.1143 79.8139 15.8457 80.0288 15.4941C80.2534 15.1426 80.3657 14.7031 80.3657 14.1758C80.3657 13.5703 80.2534 13.082 80.0288 12.7109C79.8041 12.3398 79.4477 12.0713 78.9594 11.9053C78.4809 11.7295 77.8608 11.6416 77.0991 11.6416H74.5795V29H69.4379V7.67188H77.0991C78.4174 7.67188 79.5942 7.79395 80.6293 8.03809C81.6645 8.27246 82.5434 8.63379 83.2661 9.12207C83.9985 9.61035 84.5551 10.2256 84.936 10.9678C85.3168 11.7002 85.5073 12.5645 85.5073 13.5605C85.5073 14.4297 85.3217 15.2451 84.9506 16.0068C84.5795 16.7686 83.9594 17.3887 83.0903 17.8672C82.2309 18.3359 81.0541 18.5801 79.56 18.5996L78.1391 19.9326ZM77.934 29H71.4008L73.1586 25.0449H77.934C78.6372 25.0449 79.1987 24.9375 79.6186 24.7227C80.0483 24.498 80.3559 24.2051 80.5415 23.8438C80.7368 23.4727 80.8344 23.0625 80.8344 22.6133C80.8344 22.0664 80.7416 21.5928 80.5561 21.1924C80.3803 20.792 80.0971 20.4844 79.7065 20.2695C79.3159 20.0449 78.7934 19.9326 78.1391 19.9326H73.8178L73.8471 16.5635H79.018L80.2192 17.9111C81.645 17.8525 82.7729 18.0527 83.603 18.5117C84.4428 18.9707 85.0434 19.5762 85.4047 20.3281C85.7661 21.0801 85.9467 21.8662 85.9467 22.6865C85.9467 24.083 85.644 25.25 85.0385 26.1875C84.4428 27.125 83.5493 27.8281 82.3579 28.2969C81.1665 28.7656 79.6918 29 77.934 29ZM107.899 17.6035V26.3633C107.538 26.7637 106.981 27.1934 106.23 27.6523C105.487 28.1016 104.55 28.4873 103.417 28.8096C102.284 29.1318 100.951 29.293 99.418 29.293C98.002 29.293 96.7178 29.0684 95.5655 28.6191C94.4131 28.1602 93.4219 27.4912 92.5918 26.6123C91.7715 25.7236 91.1368 24.6396 90.6875 23.3604C90.2481 22.0713 90.0284 20.5967 90.0284 18.9365V17.75C90.0284 16.0898 90.253 14.6152 90.7022 13.3262C91.1514 12.0371 91.7813 10.9531 92.5918 10.0742C93.4122 9.18555 94.3741 8.51172 95.4776 8.05273C96.5909 7.59375 97.8116 7.36426 99.1397 7.36426C101.103 7.36426 102.699 7.67676 103.93 8.30176C105.16 8.91699 106.093 9.77148 106.728 10.8652C107.362 11.9492 107.748 13.2041 107.885 14.6299H102.948C102.851 13.9268 102.665 13.3311 102.392 12.8428C102.128 12.3447 101.747 11.9687 101.249 11.7148C100.751 11.4512 100.106 11.3193 99.3155 11.3193C98.7002 11.3193 98.1387 11.4512 97.6309 11.7148C97.1329 11.9785 96.7081 12.3789 96.3565 12.916C96.0049 13.4434 95.7315 14.1074 95.5362 14.9082C95.3506 15.709 95.2579 16.6465 95.2579 17.7207V18.9365C95.2579 20.001 95.3457 20.9336 95.5215 21.7344C95.7071 22.5352 95.9805 23.2041 96.3418 23.7412C96.7129 24.2686 97.1817 24.6689 97.7481 24.9424C98.3243 25.2061 99.003 25.3379 99.7842 25.3379C100.331 25.3379 100.8 25.2939 101.19 25.2061C101.581 25.1084 101.903 24.9912 102.157 24.8545C102.421 24.708 102.621 24.5713 102.758 24.4443V21.1338H99.1836V17.6035H107.899ZM112.552 7.67188H120.946C122.587 7.67188 124.012 7.91602 125.223 8.4043C126.434 8.89258 127.367 9.61523 128.021 10.5723C128.685 11.5293 129.017 12.7109 129.017 14.1172C129.017 15.3379 128.827 16.3584 128.446 17.1787C128.065 17.999 127.533 18.6777 126.849 19.2148C126.175 19.7422 125.389 20.1768 124.491 20.5186L122.806 21.4707H115.76L115.731 17.501H120.946C121.6 17.501 122.142 17.3838 122.572 17.1494C123.002 16.915 123.324 16.583 123.539 16.1533C123.763 15.7139 123.876 15.1914 123.876 14.5859C123.876 13.9707 123.763 13.4434 123.539 13.0039C123.314 12.5645 122.982 12.2275 122.543 11.9932C122.113 11.7588 121.581 11.6416 120.946 11.6416H117.694V29H112.552V7.67188ZM124.227 29L119.51 19.5664L124.96 19.5371L129.735 28.7803V29H124.227ZM142.811 12.1543L137.611 29H132.088L139.925 7.67188H143.426L142.811 12.1543ZM147.117 29L141.903 12.1543L141.229 7.67188H144.774L152.655 29H147.117ZM146.912 21.0459V25.0156H135.97V21.0459H146.912ZM158.421 7.67188H162.61L167.371 22.5107L172.132 7.67188H176.321L169.07 29H165.672L158.421 7.67188ZM155.872 7.67188H160.208L161.014 24.0195V29H155.872V7.67188ZM174.534 7.67188H178.885V29H173.728V24.0195L174.534 7.67188Z" fill="#6E68FE"/>
</svg>
